<svg width="640" height="680" viewBox="0 0 640 680" fill="none" xmlns="http://www.w3.org/2000/svg">
<rect width="640" height="680" fill="#4573FF"/>
<path opacity="0.1" fill-rule="evenodd" clip-rule="evenodd" d="M-188.59 261.863C-181.355 253.956 -170.451 250.508 -159.986 252.82L24.6159 293.594C35.0816 295.906 43.5191 303.625 46.75 313.845L103.739 494.101C106.97 504.321 104.504 515.487 97.2689 523.395L-30.3433 662.878C-37.5781 670.785 -48.4821 674.233 -58.9478 671.921L-243.549 631.147C-254.015 628.835 -262.452 621.116 -265.683 610.897L-322.673 430.64C-325.904 420.42 -323.437 409.254 -316.202 401.346L-188.59 261.863Z" fill="white"/>
<path opacity="0.1" fill-rule="evenodd" clip-rule="evenodd" d="M124.124 547.864C131.359 539.956 142.263 536.509 152.729 538.82L337.33 579.594C347.796 581.906 356.234 589.625 359.465 599.845L416.454 780.102C419.685 790.321 417.218 801.488 409.984 809.395L282.371 948.878C275.137 956.786 264.233 960.233 253.767 957.921L69.1653 917.147C58.6996 914.836 50.2621 907.116 47.0312 896.897L-9.9581 716.64C-13.189 706.421 -10.7225 695.254 -3.48776 687.346L124.124 547.864Z" fill="white"/>
<path opacity="0.1" fill-rule="evenodd" clip-rule="evenodd" d="M-104.8 -152.392C-97.5653 -160.3 -86.6613 -163.747 -76.1956 -161.436L108.406 -120.662C118.872 -118.35 127.309 -110.631 130.54 -100.411L187.529 79.8455C190.76 90.0649 188.294 101.232 181.059 109.139L53.4467 248.622C46.2119 256.53 35.308 259.977 24.8423 257.665L-159.759 216.891C-170.225 214.58 -178.662 206.86 -181.893 196.641L-238.883 16.3841C-242.114 6.16475 -239.647 -5.00204 -232.412 -12.9098L-104.8 -152.392Z" fill="white"/>
<path opacity="0.1" fill-rule="evenodd" clip-rule="evenodd" d="M651.152 46.278C659.8 40.4713 670.841 39.5658 680.319 43.886L777.755 88.298C787.645 92.806 794.324 102.311 795.212 113.144L803.613 215.57C804.501 226.403 799.461 236.869 790.437 242.929L701.539 302.622C692.891 308.429 681.85 309.335 672.372 305.014L574.936 260.602C565.045 256.094 558.367 246.589 557.478 235.757L549.078 133.33C548.19 122.497 553.23 112.031 562.254 105.972L651.152 46.278Z" fill="white" fill-opacity="0.6"/>
<path opacity="0.1" fill-rule="evenodd" clip-rule="evenodd" d="M506.229 -163.864C514.877 -169.67 525.918 -170.576 535.396 -166.256L632.832 -121.844C642.722 -117.336 649.401 -107.831 650.289 -96.9979L658.689 5.42863C659.578 16.2615 654.537 26.7276 645.514 32.7868L556.615 92.4807C547.968 98.2874 536.927 99.1929 527.449 94.8727L430.012 50.4607C420.122 45.9527 413.444 36.4477 412.555 25.6148L404.155 -76.8117C403.267 -87.6445 408.307 -98.1106 417.331 -104.17L506.229 -163.864Z" fill="white" fill-opacity="0.6"/>
</svg>
