<svg xmlns="http://www.w3.org/2000/svg" width="256" height="256"><path fill-opacity=".016" d="M0 128.004v128.004l128.25-.254 128.25-.254.254-127.75L257.008 0H0v128.004m.485.496c0 70.4.119 99.053.265 63.672.146-35.38.146-92.98 0-128C.604 29.153.485 58.1.485 128.5" fill="#1976D2" fill-rule="evenodd"/><path fill-opacity=".219" d="M122.224 52.663c-3.762 4.24-4.573 6.56-4.408 12.615.131 4.766.764 6.692 3.619 11 4.45 6.715 5.813 8.193 13.065 14.155 19.345 15.905 25.166 25.285 24.278 39.121-.265 4.131-.148 7.718.261 7.97 1.446.894 3.673-4.117 4.898-11.024.683-3.85 2.3-9.25 3.593-12 5.523-11.749 7.348-18.621 8.122-30.571l.619-9.571-3.693-2.179C170.547 70.98 168.306 70 167.596 70c-.709 0-2.761-.734-4.56-1.632-5.573-2.78-18.036-5.436-18.036-3.843 0 .404 2.043 2.84 4.539 5.414C154.575 75.13 159 83.018 159 86.803 159 90.08 156.89 97 155.891 97c-.436 0-3.638-2.812-7.116-6.25a1385.93 1385.93 0 0 0-14.066-13.642c-8.362-7.984-8.65-8.572-9.585-19.627l-.624-7.382-2.276 2.564M110 55c0 .55-.592 1-1.316 1-.724 0-4.133 2.688-7.575 5.974-3.447 3.29-9.146 7.396-12.684 9.138L82 74.275v5.313c0 6.946 2.418 19.315 5.114 26.162.487 1.237 1.279 3.263 1.759 4.5 3.248 8.367 9.925 18.75 12.057 18.75.432 0 1.059-2.625 1.395-5.833.695-6.652 1.475-9.167 2.841-9.167.524 0 .705.399.404.887-.301.487.122 1.442.941 2.122.819.68 1.489 1.61 1.489 2.068 0 1.106 3.712 4.763 10.229 10.076 6.09 4.966 11.768 11.194 13.535 14.847.665 1.375 1.328 5.65 1.472 9.5.147 3.901.703 6.943 1.256 6.871.546-.071 2.111-2.321 3.478-5 1.914-3.75 2.479-6.375 2.454-11.405-.027-5.729-.438-7.126-3.33-11.33-1.815-2.637-5.84-7.111-8.947-9.942-22.08-20.127-27.498-28.341-27.509-41.702-.007-8.478 2.712-15.715 8.262-21.992 3.225-3.646 3.793-5 2.1-5-.55 0-1 .45-1 1M7.302 179.012c-2.874 1.158-5.628 6.552-4.876 9.551.711 2.832 6.297 7.23 9.074 7.143 4.719-.148 7.5.368 7.5 1.391 0 .719-1.635.905-4.75.542C3.018 196.33 3.476 196.27 3.758 199c.444 4.293 3.649 6 11.264 6 6.366 0 6.966-.197 9.389-3.077 5.437-6.462 1.586-13.91-7.206-13.938-4.084-.014-9.471-1.7-6.705-2.099 4.008-.578 7.541-.293 10.955.883 3.564 1.228 4.1 1.192 5.224-.344 1.772-2.424-1.589-6.957-5.78-7.795-4.338-.868-10.956-.682-13.597.382m23.248-.093c-1.261 2.04-1.791 11.015-1.092 18.478.703 7.496.752 7.603 3.52 7.603 1.545 0 2.974-.562 3.176-1.25.203-.687.139-6.65-.143-13.25-.483-11.341-.629-12.017-2.667-12.307-1.185-.169-2.443.158-2.794.726m41.2.108c-4.722 2.894-.178 5.973 8.815 5.973 2.989 0 5.435.45 5.435 1 0 .578-3.16 1-7.481 1-8.721 0-8.833.149-8.322 11.031l.303 6.469 3.25.313 3.25.314V194h5.364c4.461 0 5.807-.443 8-2.636 3.121-3.121 3.366-6.856.679-10.354-1.708-2.222-2.752-2.52-9.728-2.773-4.345-.157-8.592.193-9.565.79m41.911-.354c-.364.363-.661 1.71-.661 2.994 0 2.56-.24 2.514 14.826 2.866 8.187.192 10.968-1.181 9.176-4.529-.871-1.627-2.336-1.865-11.837-1.925-5.964-.037-11.141.23-11.504.594m27.429.719c-.769.926-1.061 5.362-.873 13.25l.283 11.858 2.614.303c2.231.259 2.708-.163 3.25-2.875 1.122-5.607.729-21.435-.564-22.728-1.587-1.587-3.292-1.517-4.71.192m23.434-.209c-.256.724-.591 3.515-.744 6.202l-.28 4.885-5.468-5.635c-6.366-6.561-9.028-7.264-9.04-2.385-.006 2.824 1.333 4.525 10.218 12.982 5.624 5.353 10.592 9.366 11.04 8.918.448-.448.687-6.402.532-13.232L170.5 178.5l-2.756-.317c-1.621-.186-2.947.225-3.22 1m10.726-.545c-1.547.654-1.651 4.996-.141 5.929.609.377 3.733.777 6.942.889 6.998.244 8.949 1.619 8.949 6.306 0 4.174-2.144 6.161-6.698 6.206-3.157.032-3.201-.035-3.5-5.218-.295-5.134-.375-5.257-3.592-5.566l-3.29-.317.29 8.817.29 8.816 6.417.302c11.332.533 17.083-3.474 17.083-11.903 0-9.82-4.042-13.881-14.347-14.417-3.934-.205-7.715-.135-8.403.156m56.46.055c-1.124 1.894-1.653 8.927-.773 10.281.809 1.244 1.362 1.093 3.558-.969 3.377-3.173 3.283-9.323-.151-9.812-1.185-.169-2.371.056-2.634.5m11.702 3.5c-11.16 10.087-12.386 11.83-12.4 17.623-.012 5.213.042 5.311 2.738 5 2.228-.256 2.812-.886 3.077-3.316.553-5.075 1.866-5.218 6.465-.704 3.479 3.414 4.981 4.204 7.996 4.204 5.022 0 4.757-1.546-1.288-7.5-2.75-2.709-5-5.417-5-6.018s2.267-3.265 5.039-5.921c2.771-2.656 4.874-5.331 4.673-5.945-.201-.614-1.754-1.254-3.451-1.423-2.461-.245-4.049.565-7.849 4m-192.826-.359c-1.347 2.605-1.289 3.103.724 6.156a134.351 134.351 0 0 1 4.201 6.916C60.937 204.607 61.295 205 64.716 205c1.806 0 3.284-.465 3.284-1.033C68 200.783 55.333 179 53.482 179c-.787 0-2.09 1.275-2.896 2.834m159.426-.355c-1.22 2.278-1.117 3.006.96 6.786 1.279 2.329 2.822 5.244 3.427 6.477.606 1.233 1.439 2.246 1.851 2.25.412.004.75.501.75 1.104 0 .602.931 2.402 2.068 4 1.595 2.24 2.853 2.904 5.5 2.904 1.888 0 3.432-.179 3.432-.398 0-.542-4.981-9.87-8.865-16.602a1008.69 1008.69 0 0 1-4.011-7c-1.374-2.458-3.655-2.245-5.112.479m-88.531 7.739c-.323 1.289-.451 5.255-.284 8.813.302 6.454.31 6.469 3.303 6.469h3v-17l-2.715-.313c-2.146-.247-2.839.179-3.304 2.031m-74.297-.353c-.723.459-1.89 1.914-2.593 3.235a308.38 308.38 0 0 1-3.434 6.18c-3.047 5.341-2.815 6.72 1.132 6.72 2.902 0 3.667-.625 6.513-5.32 3.133-5.17 3.179-5.41 1.638-8.5-.873-1.749-1.666-3.173-1.763-3.165-.097.009-.769.391-1.493.85m157.431 1.6c-.888 1.355-1.615 2.729-1.615 3.053 0 .323-1.125 2.244-2.5 4.267-3.603 5.302-3.329 7.215 1.031 7.215 2.451 0 3.729-.536 4.177-1.75.356-.963.904-1.975 1.219-2.25 2.89-2.522 4.021-9.652 1.873-11.8-1.713-1.713-2.363-1.516-4.185 1.265m-55.409 6.785c.287 7.082.358 7.257 3.044 7.566 2.164.249 2.75-.097 2.75-1.625 0-1.067.269-3.288.599-4.934.486-2.433.067-3.486-2.24-5.625-1.561-1.448-3.2-2.632-3.643-2.632-.442 0-.671 3.262-.51 7.25" fill="#1976D2" fill-rule="evenodd"/><path fill-opacity=".24" d="M107.198 57.3c-.716.66-3.591 3.447-6.389 6.193-2.798 2.747-7.837 6.367-11.198 8.045-5.952 2.973-6.119 3.166-6.426 7.41-.827 11.443 6.273 35.267 13.215 44.342 4.552 5.951 5.4 5.779 5.4-1.093 0-5.439 1.605-10.197 3.441-10.197.417 0 .759.923.759 2.05 0 1.954 4.673 7.015 18.358 19.879 7.459 7.011 8.945 9.992 9.127 18.304.081 3.703.449 7.034.818 7.403 1.6 1.6 6.997-15.553 5.592-17.772-.476-.75-.871-2.223-.88-3.273-.018-2.242-7.302-12.228-10.972-15.041-1.399-1.072-6.836-6.26-12.082-11.529-11.866-11.917-16.043-19.584-16.275-29.878C99.533 75.405 101.54 66 103.13 66c.478 0 .87-.608.87-1.352 0-.743 1.35-2.764 3-4.491 1.65-1.726 3-3.368 3-3.648 0-.871-1.44-.464-2.802.791M6.729 180.25c-2.177 1.646-3.504 5.479-2.932 8.47.633 3.311 3.783 5.103 9.801 5.574 5.96.467 7.526 1.218 6.751 3.238-.657 1.713-10.831 2.114-11.849.468-.826-1.337-4.5-1.283-4.5.066 0 5.451 9.746 8.775 16.703 5.696 3.921-1.735 5.228-3.696 5.265-7.897.04-4.59-3.058-6.865-9.351-6.865-2.449 0-5.165-.273-6.035-.607-2.039-.782-2.039-3.004 0-3.786 2.523-.968 9.241-.702 9.918.393.34.55 1.748 1 3.129 1 2.024 0 2.448-.431 2.191-2.225-.176-1.224-1.445-2.792-2.82-3.485-3.233-1.63-14.133-1.657-16.271-.04m24.175 1.427c-1.549 3.97-.614 21.26 1.212 22.415 2.907 1.839 3.384.125 3.384-12.162 0-11.009-.196-12.44-1.747-12.739-1.158-.223-2.119.616-2.849 2.486m40.48-1.236c-.956 2.493.112 2.965 7.67 3.392 5.941.336 6.946.659 6.946 2.236 0 1.595-.978 1.883-7.25 2.137l-7.25.294-.292 7.765c-.237 6.286.004 7.879 1.262 8.362 2.77 1.063 4.53-1.56 4.53-6.749V193h5.326c4.274 0 5.755-.457 7.5-2.314 2.519-2.682 2.757-6.33.599-9.186-1.256-1.664-2.932-2.059-9.96-2.352-7.129-.298-8.548-.095-9.081 1.293m42.796.809c.305 2.142.807 2.264 10.42 2.533 7.981.224 10.359-.029 11.336-1.206 2.365-2.849.114-3.577-11.065-3.577-10.846 0-11.005.034-10.691 2.25m27.521-1.618c-1.179 1.18-.823 24.174.386 24.922 2.542 1.571 3.413-1.834 3.413-13.334 0-9.753-.256-11.735-1.549-11.987-.852-.166-1.864.013-2.25.399m8.33 1.31c-1.454 2.716-1.257 2.991 9.873 13.825 4.672 4.547 8.967 8.111 9.545 7.919 1.153-.382 2.007-17.708 1.059-21.501-.423-1.693-1.173-2.23-2.793-2-1.951.277-2.251 1-2.515 6.065-.165 3.162-.603 5.75-.973 5.75s-3.453-2.755-6.85-6.122c-5.987-5.933-6.212-6.054-7.346-3.936m24.669-.601c-.963 2.508.791 3.41 7.445 3.825 8.215.514 9.855 1.745 9.855 7.4 0 5.198-2.473 7.434-8.223 7.434H180v-5.5c0-5.189-.14-5.5-2.481-5.5-1.817 0-2.65.674-3.113 2.518-.717 2.856.382 13.417 1.416 13.606 8.843 1.615 15.673-.285 19.618-5.457 4.328-5.673 2.572-13.859-3.806-17.748-3.849-2.347-16.095-2.765-16.934-.578m36.163 1.06c-1.041 2.285-.774 3.392 2.174 9.024 5.533 10.569 8.247 14.04 11.254 14.391 1.49.174 2.709.099 2.709-.167 0-.754-6.757-13.305-9.518-17.678-1.365-2.162-2.482-4.335-2.482-4.829 0-.493-.664-1.448-1.475-2.121-1.216-1.01-1.684-.767-2.662 1.38m20.838-1.769c-.944.944-.9 9.376.049 9.337 1.54-.065 4.371-5.101 4.066-7.235-.313-2.195-2.767-3.449-4.115-2.102m7.698 7.618c-8.328 8.116-8.461 8.322-8.182 12.672.156 2.432.793 4.589 1.417 4.794 1.738.572 4.366-2.575 4.366-5.228 0-4.114 2.044-3.868 6.846.823 3.853 3.764 5.127 4.453 7.404 4.001 1.512-.3 2.75-.844 2.75-1.209 0-.366-2.511-3.067-5.581-6.003l-5.581-5.338 3.331-3.575c1.832-1.966 4.348-4.424 5.591-5.461 2.668-2.227 2.11-3.726-1.387-3.726-1.791 0-4.929 2.359-10.974 8.25m-187.732-6.583c-1.345 1.344-.599 4.646 2.186 9.678 8.007 14.47 8.117 14.611 11.397 14.64 1.088.009 1.75-.741 1.75-1.985 0-1.1-.45-2-1-2s-1-.81-1-1.8-.408-2.228-.906-2.75c-.498-.522-1.893-2.75-3.1-4.95-5.639-10.281-6.435-11.5-7.511-11.5-.633 0-1.45.3-1.816.667m71 8c-1.326 1.326-.72 14.045.727 15.245 3.336 2.769 5.127-4.557 3.706-15.162-.124-.929-3.524-.993-4.433-.083m-75.84 2.036C44.6 193.256 40 201.817 40 203.41c0 .742 1.055 1.34 2.364 1.34 1.785 0 3.152-1.299 5.574-5.295 2.951-4.87 3.099-5.507 1.833-7.922-1.31-2.5-1.452-2.54-2.944-.83m157.837 1.508c-.881 1.809-2.513 4.639-3.626 6.289-2.418 3.582-2.556 5.087-.538 5.862 2.398.92 3.812-.141 6.859-5.143 2.23-3.659 2.67-5.23 2-7.125-1.277-3.614-2.899-3.574-4.695.117m-54.903-.536c-.248.454-.183 3.3.144 6.325.511 4.726.912 5.545 2.845 5.82 2.041.289 2.25-.09 2.25-4.076 0-3.344-.573-4.934-2.395-6.645-1.316-1.237-2.597-1.878-2.844-1.424" fill="#1976D2" fill-rule="evenodd"/><path fill-opacity=".194" d="M100 64.757c-2.475 2.609-7.2 6.135-10.5 7.836-5.648 2.911-5.99 3.292-5.83 6.5C84.112 87.976 85.354 97 86.134 97c.476 0 .866 1.356.866 3.014 0 1.657.409 3.795.909 4.75.5.955 2.333 4.863 4.074 8.685 1.74 3.822 4.066 8.215 5.167 9.762 2.128 2.988 3.975 2.985 3.193-.006-.65-2.486 3.569-13.399 4.999-12.931.637.209 1.308 1.667 1.492 3.239.306 2.611 8.506 11.66 17.245 19.029 7.497 6.321 10.148 11.522 10.258 20.125.048 3.758.25 6.046.448 5.083.199-.963.779-1.75 1.288-1.75.51 0 .927-.873.927-1.941s.414-2.197.919-2.509c1.557-.962 1.103-12.194-.637-15.751-.888-1.815-7.767-9.374-15.287-16.799-7.521-7.425-15.066-15.562-16.767-18.082-4.014-5.946-7.607-17.03-6.879-21.22 1.434-8.251 2.128-10.42 4.768-14.896 1.557-2.641 2.505-4.799 2.107-4.795-.398.004-2.749 2.141-5.224 4.75M6.598 181.305c-2.157 1.577-2.571 7.817-.671 10.107.921 1.11 3.029 1.588 7.004 1.588 7.045 0 9.851 1.67 8.149 4.851-1.051 1.964-1.755 2.138-6.77 1.674-3.078-.285-6.218-1.034-6.977-1.664-1.796-1.49-2.684-.542-1.877 2.002.887 2.794 6.647 4.499 12.326 3.647 5.262-.789 7.14-2.646 7.186-7.105.047-4.568-2.585-6.405-9.174-6.405-6.243 0-8.995-1.865-7.134-4.834 1.226-1.956 10.026-2.88 11.68-1.226 1.104 1.104 4.66 1.481 4.66.494 0-.311-.466-1.436-1.035-2.5-.878-1.64-2.141-1.934-8.309-1.934-4.404 0-7.978.515-9.058 1.305m25.269 2.945c-.142 4.524-.124 12.781.036 16.5.056 1.29.737 2.25 1.597 2.25 1.246 0 1.5-1.944 1.5-11.5 0-9.556-.254-11.5-1.5-11.5-1.077 0-1.538 1.198-1.633 4.25m20.8-3.583c-1.315 1.314-.622 4.453 2.083 9.431 5.833 10.736 6.803 12.259 8.452 13.279 3.438 2.126 3.2-.727-.644-7.713-2.168-3.94-4.868-9.066-6-11.39-2.077-4.266-2.677-4.822-3.891-3.607m18.829.34c-.873 1.411 1.015 1.904 8.504 2.219 6.194.261 6.5.392 6.5 2.774 0 2.381-.333 2.524-7 3l-7 .5v7c0 5.556.31 7 1.5 7 1.104 0 1.58-1.384 1.802-5.25l.303-5.25h3.882c9.787 0 15.013-5.833 9.699-10.826-1.959-1.84-3.487-2.174-9.941-2.174-4.195 0-7.907.453-8.249 1.007M114 181.5c0 1.238 1.833 1.5 10.5 1.5s10.5-.262 10.5-1.5-1.833-1.5-10.5-1.5-10.5.262-10.5 1.5m28 10.583c0 9.222.296 11.985 1.25 11.669.882-.293 1.333-3.846 1.532-12.084.24-9.935.054-11.668-1.25-11.668-1.291 0-1.532 1.898-1.532 12.083m9-9.797c0 2.565 5.237 8.541 16.335 18.638l2.665 2.425v-11.675c0-11.245-.078-11.674-2.13-11.674-1.932 0-2.083.417-1.625 4.48.323 2.868.031 5.117-.812 6.25-1.207 1.623-1.862 1.232-7.875-4.701-6.227-6.144-6.558-6.333-6.558-3.743m24-.786c0 1.153 1.283 1.5 5.55 1.5 5.903 0 10.808 1.884 11.829 4.545 1.204 3.137.619 8.147-1.129 9.665-.963.837-3.887 1.798-6.5 2.136l-4.75.616v-5.551c0-5.184-.149-5.529-2.25-5.231-2.001.285-2.284.972-2.554 6.216-.168 3.242.17 6.37.749 6.949 1.467 1.467 8.898 1.773 12.816.528 4.093-1.3 8.239-6.616 8.239-10.564 0-3.945-2.444-8.715-5.488-10.709-3.369-2.208-16.512-2.287-16.512-.1m36.164.609c-1.025 1.641-.922 2.444.602 4.686 1.012 1.488 2.941 4.857 4.287 7.486 3.452 6.744 6.255 10.005 8.237 9.582 1.862-.398 1.777-.638-3.307-9.363-1.282-2.2-3.417-6.135-4.744-8.745-2.936-5.774-3.495-6.176-5.075-3.646m20.454 1.051c-.348 1.738-.415 3.377-.149 3.642 1.009 1.01 3.531-2.15 3.531-4.424 0-3.519-2.644-2.908-3.382.782m8.037 4.806c-6.448 6.709-7.655 8.497-7.655 11.333 0 1.852.296 3.664.658 4.026.952.951 3.434-1.367 2.713-2.534-.785-1.271 1.626-5.791 3.09-5.791.617 0 3.11 2.025 5.539 4.5s4.971 4.5 5.649 4.5c3.02 0 2.127-2.439-2.621-7.163l-5.129-5.101 2.301-2.574c1.265-1.415 3.538-3.706 5.05-5.09 3.365-3.08 3.463-4.072.405-4.072-1.622 0-4.702 2.453-10 7.966m-116.013 1.804c-.804 1.301-1.033 11.788-.284 13.001.388.628 1.367.888 2.174.578 2.102-.806 2.128-14.349.027-14.349-.793 0-1.655.346-1.917.77m-77.144 2.78a903.746 903.746 0 0 1-4.154 6.679c-2.878 4.578-2.88 4.682-.094 4.498 3.854-.254 8.344-7.947 6.906-11.833l-.848-2.294-1.81 2.95m156.643 3.641c-1.756 3.404-2.799 6.551-2.328 7.022 1.088 1.088 4.18-.064 4.209-1.57.012-.629.902-2.268 1.978-3.643 2.297-2.936 2.526-5.318.661-6.866-1.06-.88-2.001.172-4.52 5.057m-51.95 2.456c.17 2.669.759 4.74 1.309 4.603 1.516-.379 1.238-8.504-.309-9.02-.985-.328-1.233.765-1 4.417" fill="#1976D2" fill-rule="evenodd"/></svg>